<svg width="24" height="24" viewBox="0 0 24 24" fill="none" xmlns="http://www.w3.org/2000/svg">
<path d="M21 12C21 12.1989 20.921 12.3897 20.7803 12.5303C20.6397 12.671 20.4489 12.75 20.25 12.75H11.25V18.75C11.2501 18.8984 11.2062 19.0435 11.1238 19.167C11.0414 19.2904 10.9242 19.3867 10.7871 19.4435C10.65 19.5003 10.4991 19.5151 10.3535 19.4862C10.208 19.4572 10.0743 19.3856 9.96937 19.2806L3.21937 12.5306C3.14964 12.461 3.09432 12.3783 3.05658 12.2872C3.01883 12.1962 2.9994 12.0986 2.9994 12C2.9994 11.9014 3.01883 11.8038 3.05658 11.7128C3.09432 11.6217 3.14964 11.539 3.21937 11.4694L9.96937 4.71938C10.0743 4.61437 10.208 4.54284 10.3535 4.51386C10.4991 4.48487 10.65 4.49972 10.7871 4.55654C10.9242 4.61335 11.0414 4.70957 11.1238 4.83302C11.2062 4.95646 11.2501 5.10158 11.25 5.25V11.25H20.25C20.4489 11.25 20.6397 11.329 20.7803 11.4697C20.921 11.6103 21 11.8011 21 12Z" fill="#F1F1F1"/>
</svg>
