<svg width="112" height="112" viewBox="0 0 112 112" fill="none" xmlns="http://www.w3.org/2000/svg">
<path d="M109.66 98.34C110.403 99.0833 110.993 99.9657 111.395 100.937C111.797 101.908 112.005 102.949 112.005 104C112.005 105.051 111.797 106.092 111.395 107.063C110.993 108.034 110.403 108.917 109.66 109.66C108.917 110.403 108.034 110.993 107.063 111.395C106.092 111.797 105.051 112.004 104 112.004C102.949 112.004 101.908 111.797 100.937 111.395C99.9657 110.993 99.0833 110.403 98.34 109.66L56.0001 67.31L13.6601 109.66C12.1589 111.161 10.123 112.004 8.00005 112.004C5.87714 112.004 3.84118 111.161 2.34005 109.66C0.838924 108.159 -0.00439452 106.123 -0.00439453 104C-0.00439455 101.877 0.838924 99.8411 2.34005 98.34L44.6901 56L2.34005 13.66C0.838925 12.1589 -0.00439457 10.1229 -0.00439453 7.99999C-0.00439449 5.87708 0.838932 3.84112 2.34006 2.34C3.84118 0.838871 5.87714 -0.00445552 8.00005 -0.00445557C10.123 -0.00445561 12.1589 0.838863 13.6601 2.33999L56.0001 44.69L98.34 2.33999C99.8412 0.838863 101.877 -0.00445558 104 -0.00445557C106.123 -0.00445555 108.159 0.838863 109.66 2.33999C111.161 3.84111 112.005 5.87708 112.005 7.99999C112.005 10.1229 111.161 12.1589 109.66 13.66L67.3101 56L109.66 98.34Z" fill="#D9D9D9"/>
</svg>
